HIERARCHY
ROOT Hips
{
	OFFSET -14.64140 90.27770 -84.91600
	CHANNELS 6 Xposition Yposition Zposition Zrotation Xrotation Yrotation
	JOINT Spine
	{
		OFFSET 0.00000 13.20850 -1.60436
		CHANNELS 3 Zrotation Xrotation Yrotation
		JOINT Spine1
		{
			OFFSET 0.00000 8.61716 0.00000
			CHANNELS 3 Zrotation Xrotation Yrotation
			JOINT Spine2
			{
				OFFSET 0.00000 8.61717 0.00000
				CHANNELS 3 Zrotation Xrotation Yrotation
				JOINT Spine3
				{
					OFFSET 0.00000 8.61717 0.00000
					CHANNELS 3 Zrotation Xrotation Yrotation
					JOINT Neck
					{
						OFFSET 0.00000 11.07920 1.10792
						CHANNELS 3 Zrotation Xrotation Yrotation
						JOINT Neck1
						{
							OFFSET 0.00000 7.08032 0.00000
							CHANNELS 3 Zrotation Xrotation Yrotation
							JOINT Head
							{
								OFFSET 0.00000 7.08031 0.00000
								CHANNELS 3 Zrotation Xrotation Yrotation
								End site
								{
									OFFSET 0.00000 0.00000 0.00000
								}
							}
						}
					}
					JOINT RightShoulder
					{
						OFFSET -0.01000 7.91373 5.19711
						CHANNELS 3 Zrotation Xrotation Yrotation
						JOINT RightArm
						{
							OFFSET -18.41580 0.00000 0.00000
							CHANNELS 3 Zrotation Xrotation Yrotation
							JOINT RightForeArm
							{
								OFFSET -29.11090 0.00000 0.00000
								CHANNELS 3 Zrotation Xrotation Yrotation
								JOINT RightHand
								{
									OFFSET -24.65040 0.00000 0.00000
									CHANNELS 3 Zrotation Xrotation Yrotation
									JOINT RightHandThumb1
									{
										OFFSET -5.35114 -0.85590 3.97906
										CHANNELS 3 Zrotation Xrotation Yrotation
										JOINT RightHandThumb2
										{
											OFFSET -4.52789 0.00000 0.00000
											CHANNELS 3 Zrotation Xrotation Yrotation
											JOINT RightHandThumb3
											{
												OFFSET -2.46976 0.00000 0.00000
												CHANNELS 3 Zrotation Xrotation Yrotation
												End site
												{
													OFFSET 0.00000 0.00000 0.00000
												}
											}
										}
									}
									JOINT RightHandIndex1
									{
										OFFSET -14.26970 0.00000 2.88139
										CHANNELS 3 Zrotation Xrotation Yrotation
										JOINT RightHandIndex2
										{
											OFFSET -5.48836 0.00000 0.00000
											CHANNELS 3 Zrotation Xrotation Yrotation
											JOINT RightHandIndex3
											{
												OFFSET -3.01859 0.00000 0.00000
												CHANNELS 3 Zrotation Xrotation Yrotation
												End site
												{
													OFFSET 0.00000 0.00000 0.00000
												}
											}
										}
									}
									JOINT RightHandMiddle1
									{
										OFFSET -14.26970 0.00000 -0.09147
										CHANNELS 3 Zrotation Xrotation Yrotation
										JOINT RightHandMiddle2
										{
											OFFSET -6.17441 0.00000 0.00000
											CHANNELS 3 Zrotation Xrotation Yrotation
											JOINT RightHandMiddle3
											{
												OFFSET -3.56743 0.00000 0.00000
												CHANNELS 3 Zrotation Xrotation Yrotation
												End site
												{
													OFFSET 0.00000 0.00000 0.00000
												}
											}
										}
									}
									JOINT RightHandRing1
									{
										OFFSET -12.69180 0.00000 -3.06433
										CHANNELS 3 Zrotation Xrotation Yrotation
										JOINT RightHandRing2
										{
											OFFSET -5.62556 0.00000 0.00000
											CHANNELS 3 Zrotation Xrotation Yrotation
											JOINT RightHandRing3
											{
												OFFSET -3.56744 0.00000 0.00000
												CHANNELS 3 Zrotation Xrotation Yrotation
												End site
												{
													OFFSET 0.00000 0.00000 0.00000
												}
											}
										}
									}
									JOINT RightHandPinky1
									{
										OFFSET -11.11390 0.00000 -6.03719
										CHANNELS 3 Zrotation Xrotation Yrotation
										JOINT RightHandPinky2
										{
											OFFSET -4.52789 0.00000 0.00000
											CHANNELS 3 Zrotation Xrotation Yrotation
											JOINT RightHandPinky3
											{
												OFFSET -2.46976 0.00000 0.00000
												CHANNELS 3 Zrotation Xrotation Yrotation
												End site
												{
													OFFSET 0.00000 0.00000 0.00000
												}
											}
										}
									}
								}
							}
						}
					}
					JOINT LeftShoulder
					{
						OFFSET 0.01000 7.91373 5.19711
						CHANNELS 3 Zrotation Xrotation Yrotation
						JOINT LeftArm
						{
							OFFSET 18.41580 0.00000 0.00000
							CHANNELS 3 Zrotation Xrotation Yrotation
							JOINT LeftForeArm
							{
								OFFSET 29.11090 0.00000 0.00000
								CHANNELS 3 Zrotation Xrotation Yrotation
								JOINT LeftHand
								{
									OFFSET 24.65040 0.00000 0.00000
									CHANNELS 3 Zrotation Xrotation Yrotation
									JOINT LeftHandThumb1
									{
										OFFSET 5.35114 -0.85590 3.97906
										CHANNELS 3 Zrotation Xrotation Yrotation
										JOINT LeftHandThumb2
										{
											OFFSET 4.52789 0.00000 0.00000
											CHANNELS 3 Zrotation Xrotation Yrotation
											JOINT LeftHandThumb3
											{
												OFFSET 2.46977 0.00000 0.00000
												CHANNELS 3 Zrotation Xrotation Yrotation
												End site
												{
													OFFSET 0.00000 0.00000 0.00000
												}
											}
										}
									}
									JOINT LeftHandIndex1
									{
										OFFSET 14.26970 0.00000 2.88139
										CHANNELS 3 Zrotation Xrotation Yrotation
										JOINT LeftHandIndex2
										{
											OFFSET 5.48836 0.00000 0.00000
											CHANNELS 3 Zrotation Xrotation Yrotation
											JOINT LeftHandIndex3
											{
												OFFSET 3.01859 0.00000 0.00000
												CHANNELS 3 Zrotation Xrotation Yrotation
												End site
												{
													OFFSET 0.00000 0.00000 0.00000
												}
											}
										}
									}
									JOINT LeftHandMiddle1
									{
										OFFSET 14.26970 0.00000 -0.09147
										CHANNELS 3 Zrotation Xrotation Yrotation
										JOINT LeftHandMiddle2
										{
											OFFSET 6.17440 0.00000 0.00000
											CHANNELS 3 Zrotation Xrotation Yrotation
											JOINT LeftHandMiddle3
											{
												OFFSET 3.56744 0.00000 0.00000
												CHANNELS 3 Zrotation Xrotation Yrotation
												End site
												{
													OFFSET 0.00000 0.00000 0.00000
												}
											}
										}
									}
									JOINT LeftHandRing1
									{
										OFFSET 12.69180 0.00000 -3.06433
										CHANNELS 3 Zrotation Xrotation Yrotation
										JOINT LeftHandRing2
										{
											OFFSET 5.62556 0.00000 0.00000
											CHANNELS 3 Zrotation Xrotation Yrotation
											JOINT LeftHandRing3
											{
												OFFSET 3.56744 0.00000 0.00000
												CHANNELS 3 Zrotation Xrotation Yrotation
												End site
												{
													OFFSET 0.00000 0.00000 0.00000
												}
											}
										}
									}
									JOINT LeftHandPinky1
									{
										OFFSET 11.11390 0.00000 -6.03719
										CHANNELS 3 Zrotation Xrotation Yrotation
										JOINT LeftHandPinky2
										{
											OFFSET 4.52789 0.00000 0.00000
											CHANNELS 3 Zrotation Xrotation Yrotation
											JOINT LeftHandPinky3
											{
												OFFSET 2.46976 0.00000 0.00000
												CHANNELS 3 Zrotation Xrotation Yrotation
												End site
												{
													OFFSET 0.00000 0.00000 0.00000
												}
											}
										}
									}
								}
							}
						}
					}
					JOINT pCube4
					{
						OFFSET 0.00000 10.91090 1.10792
						CHANNELS 3 Zrotation Xrotation Yrotation
						End site
						{
							OFFSET 0.00000 0.00000 0.00000
						}
					}
				}
			}
		}
	}
	JOINT RightUpLeg
	{
		OFFSET -9.98441 0.00000 0.00000
		CHANNELS 3 Zrotation Xrotation Yrotation
		JOINT RightLeg
		{
			OFFSET 0.00000 -42.11790 0.00000
			CHANNELS 3 Zrotation Xrotation Yrotation
			JOINT RightFoot
			{
				OFFSET 0.00000 -45.00020 -0.00001
				CHANNELS 3 Zrotation Xrotation Yrotation
				JOINT RightForeFoot
				{
					OFFSET 0.00000 -3.74820 0.00000
					CHANNELS 3 Zrotation Xrotation Yrotation
					JOINT RightToeBase
					{
						OFFSET 0.00000 0.06325 14.43120
						CHANNELS 3 Zrotation Xrotation Yrotation
						End site
						{
							OFFSET 0.00000 0.00000 0.00000
						}
					}
				}
			}
		}
	}
	JOINT LeftUpLeg
	{
		OFFSET 9.98441 0.00000 0.00000
		CHANNELS 3 Zrotation Xrotation Yrotation
		JOINT LeftLeg
		{
			OFFSET 0.00000 -42.11800 0.00000
			CHANNELS 3 Zrotation Xrotation Yrotation
			JOINT LeftFoot
			{
				OFFSET 0.00000 -45.00070 0.00000
				CHANNELS 3 Zrotation Xrotation Yrotation
				JOINT LeftForeFoot
				{
					OFFSET 0.00000 -3.74824 0.00000
					CHANNELS 3 Zrotation Xrotation Yrotation
					JOINT LeftToeBase
					{
						OFFSET 0.00000 0.06325 14.43110
						CHANNELS 3 Zrotation Xrotation Yrotation
						End site
						{
							OFFSET 0.00000 0.00000 0.00000
						}
					}
				}
			}
		}
	}
}
MOTION
Frames: 4
Frame Time: 0.050000
0.02331616351139663 0.01527939537346891 -0.0309882287869986 0.017879622722565987 -0.0009363337045875325 -0.021260138997245003 4.9330737542257905 2.8911964619885175 -2.1859912685392526 -0.6738252175748819 3.811993249109443 0.29916931771327626 -0.6745232657054673 -1.690817355999786 0.5896166676922346 -0.3943828865246997 -0.5340448391927339 -0.2707671655239326 0.18882327321648962 16.601976987710344 -3.060507035894295 0.35652233470157096 -0.6681505593821843 -6.127595414025966 1.3202594316263105 -18.214969550246128 -0.5681561662462681 -13.885171642649837 4.276724967033887 -17.921966310518634 82.49310184670901 -11.286160220342886 32.14960110370281 23.89381682136729 10.735018835673122 107.42996762122964 9.332608013440174 -0.2418548069481376 -0.15488947729407357 4.504566354714057 -0.14365837440768742 -1.6032790386635227 0.031095668680888026 0.027217423453333396 -56.24678773644468 -0.011763119903765652 0.033881235430566745 -56.23274039198915 -38.77603170348831 0.032484063028297816 -0.03763768487852971 -0.013635569294537237 0.00953778400933217 -0.025937871014093995 0.004967435021276672 -0.040314822536747556 -0.021148027067096207 -36.651750595182115 0.04881226619789242 -0.02642014598672651 -0.00861254514999769 0.011279740260478276 0.019132082166246164 -0.026707578797457457 0.011324008333142057 0.008112477594040731 -19.779944775153343 -0.01578786311622827 -0.004876980860605708 0.012882657098184034 -0.044103186739313495 0.004729038866075429 -0.008642778894181875 -0.02695556063352825 -0.039095825789747775 24.005480204948185 -0.03966917980184739 -0.007061872720488431 28.815963098790046 0.00039032563349532175 0.03651429459081178 28.856631476968033 0.03340551138717298 0.005254720448024934 14.629068939145947 3.269287865202239 14.967118829503812 -77.7079108394421 1.2017527623738067 -37.334990251092 -34.82466691902255 16.18193032764771 -108.27158604605434 -12.890185275380354 3.8449018745013515 -6.167563516047321 -0.46951250534205013 0.018282356321339954 -8.129072496844286 0.04776527798885746 -0.04636530083056359 44.59098153812237 -0.030535215056789713 0.039180448717536474 44.55625009332588 12.418774802312358 -0.01434793928913942 -0.04791435934008003 -0.019842991179988053 0.01007378009648822 -0.007731750068862902 -0.025953698660538323 -0.025386042635200105 -0.0019968583164571185 11.099382172073227 -0.029241494843590614 -0.0026285441703512665 -0.019890553543412945 0.020977276571827647 0.02413032207033186 -0.01040315696071427 0.045758229206206494 -0.00917567426022143 4.7319385491777215 -0.033318222132340695 -0.046523107220383934 0.025588817132426927 0.009515472178034948 0.03831134075921731 -0.013828385836725297 0.012114970103747407 -0.04110686596995608 -5.594184790359391 0.005949758965541402 -0.0247293648434019 -6.707076813507525 0.01894430642139482 -0.010904124690573344 -6.6731701796904845 -0.007439821198938866 0.027816350392368943 -0.03015731933861304 0.007992822767112153 0.046479934806488224 8.09463233709006 3.542452583167959 -19.172722414352684 -0.029535199517745914 10.435523689988516 0.024066330868256297 -5.647539406888669 -15.645117799765485 3.210699915858161 -0.00031779185979014115 0.02839627974129488 0.03742630855571548 -0.03624880245072313 4.72870174203346 0.004697660739635851 12.411242899675296 -8.217000732036198 6.86184777158133 0.027331101930731676 46.360885245395124 -0.011510968369372744 -4.288717790101955 -14.70677033917778 -3.8121752847482995 0.029850956226424925 -0.03287777081834748 0.006837566732136513 0.0033231248058322735 -10.741325569008609 0.03622356307963172 
0.00094403647655862 -0.011630818364874012 0.019063828564969743 0.04180669259271297 -0.010501961934773471 -0.03218440058240436 5.0273459270948715 3.0029978679387663 -2.1734628588632683 -0.6968156832815152 3.801508714749124 0.3934643481848013 -0.6373931244511271 -1.593064178283916 0.4800770831973335 -0.4328840854225813 -0.5060965797825782 -0.3135867430451696 0.060045523853476473 16.524526240241414 -2.907223648229364 0.3501351198562221 -0.6954531643575048 -5.875402680449708 1.2109001178213596 -18.20274011944252 -0.5728950410574729 -14.051223720741971 4.3276318009830606 -17.94595897100714 83.61132903776918 -10.617666343003057 30.994882017364993 26.57953002057563 10.76496573090047 106.68375363887165 9.221897852462046 -0.2334903061963561 -0.5162736966905933 4.556869605431736 -0.1073205169008864 -1.5540104548167006 -0.02941575600715808 -0.035142989433786104 -56.20466669408579 0.037502834657747036 0.037499483269908866 -56.218209302529054 -38.77987307162013 0.012518656887216413 -0.030448641602402925 -0.02824166696259036 -0.044189401927640794 -0.006545653020696013 0.029443577434195133 -0.0017244138624456097 0.02678809478312251 -36.68379652570502 -0.009628506502204141 0.0016809865835606674 -0.044917114497428426 -0.04737223316520062 -0.046725139480303275 -0.046390373453518395 -0.03278340746961907 0.04520545040342105 -19.765891176437577 -0.022881575656561966 0.048599891223902326 0.02282600533891073 -0.004625741132080302 -0.004890406144515888 -0.014445860681778057 -0.032423403789903764 -0.024276656961635813 24.011813924074833 0.016981064242440034 0.012926565703960549 28.894326295150407 -0.024862890918003065 -0.04164753520920961 28.890587491699176 -0.02410129653590869 0.03732716758137796 14.996726037884924 3.277070556117776 15.003327029609988 -78.23875794219602 0.03902219727431928 -37.45140609372476 -41.165708766603366 16.750810591770318 -109.43988884971138 -12.192446294042623 3.19171140533705 -5.171931813541644 -0.48589117721811625 0.030797734250251424 -8.083034477697376 -0.029951230940584623 0.038274277865811085 44.58779154112863 0.0064910664326618805 0.04107762759635708 44.59959599969778 12.507221122329062 0.04884228368224801 -0.012100941337524406 0.009590087151769337 -0.04164787325923968 -0.010951336879597609 0.02240868228369877 0.032092164675539 -0.021540289742905814 11.123542095706357 0.01497123995937828 0.04786576683579754 0.01949692316791752 0.006931287702990707 -0.02053683981556364 0.03171588534714187 0.007536837497102135 -0.024943011397422953 4.738082157818447 0.01469226116700115 0.016690794703023877 0.020576991541151477 -0.02409180430533584 0.014934186886460721 -0.024325108946082252 -0.004514634813585577 0.049329511269928315 -5.644416402171834 -0.04084990858764198 -0.014389137151644553 -6.6806084564533235 -0.0024272487814333715 -0.03683435397420168 -6.6867770601305265 -0.0035482718916579692 0.011691475400992538 0.032125235375486276 0.011528250267668485 0.030771707424493356 8.086946907103464 3.4877755191059445 -19.237989748674966 0.04188423522918695 10.438350020417982 0.014368494582707962 -5.639271859321089 -15.708160699451858 3.162606205575207 0.022675934268523743 -0.0032625158547875486 0.004575878121056409 0.027001675198623863 4.661790470086709 -0.014559757936715356 12.48316434337004 -8.218241964927458 6.90341382069938 -0.029939789703040634 46.37293308288536 -0.017334800948830806 -4.35961629994129 -14.777545673388621 -3.8442470556018935 -0.012359304007824546 0.015545548200204838 0.0004639349798324261 0.034487632361055794 -10.709110154100113 -0.028429284991211674 
0.020084275479786792 0.0269360477270959 0.012702113623341789 -0.017942679237256537 0.020878402000343164 -0.04258001717010363 4.974120094209154 3.0351205658040876 -2.239788693237005 -0.6946135481486343 3.7545154724297753 0.37965100265397433 -0.6505136375105873 -1.6019330628053323 0.36439871962231096 -0.444379506733033 -0.44745935587304647 -0.32890754494667246 0.07871156340149763 16.414289282167626 -2.83565193723766 0.34959493921959844 -0.6601222724656778 -5.83585308889969 1.1841053302394633 -18.279217128162458 -0.5853896911656606 -14.358385320802842 4.359950819300594 -18.052446336753306 84.69209232055432 -10.845177930634344 30.584744222845938 28.341971279630073 10.482435720568057 105.71217701384435 9.284999003712727 -0.2695560729260435 -0.9043405461773855 4.5035741730332335 -0.12120708433965884 -1.5904436755373488 -0.0029265871118628536 -0.009180287632704613 -56.27048271152623 0.041034963470447404 -0.03544979270631516 -56.26983812170678 -38.751686962930066 -0.017653027777580325 0.003263419116668258 -0.005958517614667162 -0.03586026062410283 -0.007444021508214835 0.04565628791586719 -0.04432681654375716 -0.006778212057724728 -36.68400592793702 0.021730882887750567 -0.0038035074537513722 0.011842905701375911 0.040391305940829444 0.016016206225451343 0.002200759448486564 -0.03938772003217031 0.00697500999554279 -19.75866186971185 0.008873119788998199 0.029067856752110433 0.03810722096503873 -0.014465011685568992 0.005264978064828619 0.019447831571204024 0.028654144883762302 0.00942126824003124 24.06003416317824 0.04228205194828219 -0.030304699547963325 28.88805952360784 0.026310098344381756 0.029478513243049172 28.85195209275997 -0.047483597753023396 -0.01883568644495795 15.243778524645933 3.3157540701877 14.997138390797776 -78.68114934508861 -0.8613207381737098 -36.79286147443029 -46.13808586040998 16.532121876634708 -109.96553820500648 -11.61246984290356 2.6382423773555557 -4.327570073946672 -0.47633253384393975 0.10391300371731776 -8.134871669026957 0.01632909664905061 -0.006294976136908658 44.544054697601645 -0.007621265233138875 0.03105782208708451 44.536923146068986 12.481697184443972 0.000296440449546153 -0.015698683867532617 0.029797248558328833 -0.0014483627385959356 0.03931759723451879 -0.0452865668084173 0.013982833871977497 0.021173947446007816 11.073696259944262 0.00813322807232868 -0.048484024566149336 -0.030713909432600658 -0.021587133591367744 -0.036020306022996884 0.03165277266310668 0.024147829361281774 0.046494879949680795 4.77444717001614 -0.03182271798622196 0.042102311648332356 0.028211740357603255 0.025481229821531965 -0.02047380851016087 0.017936010834139388 -0.021651234577886747 0.0030892158896677945 -5.622297044933919 -0.01102233533965927 0.0208142975482704 -6.770531601223932 0.04367302422145389 0.012601845190998584 -6.756701255096101 0.004277634831366079 -0.020415247596641622 -0.027799521549002084 0.0024456102716754625 0.039821924988284504 8.079084239093667 3.5268720982282797 -19.19562911584286 -0.03896990961023286 10.368788488499032 -0.007518989960146813 -5.662607410484618 -15.637359796864095 3.17802197886939 0.01376310440161526 -0.0028862871236056925 0.028147338649214322 -0.04094266581281813 4.726673471787418 -0.035213916124157474 12.456181896010305 -8.212011891405943 6.879508004407005 -0.039861638598551345 46.378628932442 0.00915875547464393 -4.33069452883117 -14.717352195395149 -3.850013243135213 -0.025874411431645743 0.008633239912246241 0.019630127404810134 -0.03795368842904854 -10.79393503301678 0.023367240914393527 
0.04723119846986811 0.0497853094160296 0.03280177587113673 0.014381079968931244 0.02144947108136849 -0.022987222116421256 4.902089182888053 3.0847253663800154 -2.168257106611954 -0.7059441539258556 3.6946258295688184 0.3303755069183759 -0.6379086257893857 -1.5930311597420195 0.3708363184852383 -0.4770879347079252 -0.45125738096194695 -0.31899174820525555 0.0929815461166521 16.082146750960018 -2.8666799875396207 0.30979941535552 -0.7278773013072887 -5.8527315883375035 1.230686805780294 -18.37316353235245 -0.5462721405888942 -14.365593310910254 4.411464381302987 -17.876041496169844 85.71625399364693 -10.71900598484992 30.142283833903686 29.210624816613915 9.90738149846283 104.90378654166474 9.254682777750835 -0.27997283754262203 -1.4098788007220273 4.53086738361678 -0.13678558732313675 -1.5931262614434105 0.048249027886075456 -0.02476231633190778 -56.22686828330671 0.011169157868403098 0.03959742333843542 -56.21617993272828 -38.77990706122272 0.027823639716693046 0.015049823330524187 -0.004637685160518333 0.01596122558232428 -0.041790123763062695 0.014127002344768883 0.001569867383348107 -0.00828500311908955 -36.662858577105546 -0.02138597247893328 -0.04442206307662588 -0.03151215283480809 -0.018673964393789336 0.039530304746840765 -0.041885312847137424 -0.0412247416706877 -0.011927198297571483 -19.76968034963827 0.0009250703535163415 -0.01562484180620102 0.03229937095886505 -0.007108323612057687 0.014463240196341641 0.04098936891582246 0.0014137253525170926 0.0037814873779028627 24.075570663062127 0.044949057970581296 0.005701718481575725 28.897718578612885 -0.033618767120316605 -0.03146229122879559 28.895175733191817 -0.0016752229530238767 -0.02178831698349132 15.140953989956486 3.265963067435222 14.865506997823921 -79.19829006921346 -1.2391072753790384 -35.68218716107979 -50.23691976291418 15.85307004481987 -110.03522529364257 -10.815560756428027 2.121316467666397 -3.3811346599573824 -0.5108094499911856 0.02054107016426967 -8.134808685905327 0.0005003251432556478 0.02131615577008386 44.569353019032995 0.03716299940747901 -0.0019276527045297414 44.55205027497109 12.500444846626857 -0.02753246870833781 -0.006316939642725354 -0.03408284782541972 -0.022260312926332494 -0.03761837616891848 -0.035516569963842434 -0.012563139143060757 0.038027003755490486 11.088840922341266 0.040193227799400814 -0.0012936297452903402 -0.03622071687716437 -0.023305727166230198 -0.009588219980525694 0.01631363056296095 0.04572742408716985 -0.029174566749474384 4.781196092943886 -0.018962419970192084 -0.014391842417653768 0.006016846724106764 0.04542948597740217 0.03426446027366394 0.006801724709472663 -0.032570414839536314 -0.04176478708802911 -5.554786923198516 0.012552368316809026 0.03337647677023026 -6.690509498296358 0.0027079079605501523 0.014712614499702053 -6.737331383339642 0.0049776380525447935 -0.03400276420141236 -0.04463124915895455 -0.011079726793370463 0.015361609898799776 8.010483557291789 3.466460848976367 -19.198910853932183 -0.014479057132560645 10.378588571415074 -0.02954605056693718 -5.572323591904871 -15.64242606839604 3.211205221140264 -0.048419301324092105 -0.024964491846459554 0.04155168647114389 0.04361428790479435 4.694212391894514 -0.028666013058889873 12.426763211741834 -8.229960565039763 6.845298229714216 -0.01253473965067695 46.332372994513356 0.00851340874706633 -4.30405270737159 -14.784011072416014 -3.800794328533279 -0.0060888626372702205 -0.005637797262781641 -0.0466047881701678 0.004741559412771483 -10.762306471746031 -0.01129388186810835 
